PathFileType	4	(X/Y/Z)	Kaydara	
DataRate	CameraRate	NumFrames	NumMarkers	Units	OrigDataRate	OrigDataStartFrame	OrigNumFrames	
60.00	60.00	4	74	mm	60.00	388	151	
Frame#	Time	Z_lasi			Z_rasi			Z_rpsi			Z_lpsi			Z_fneck			Z_bneck			Z_fhead			Z_rhead			Z_lhead			Z_rshld			Z_relbtop			Z_relbext			Z_relblow			Z_rwrext			Z_rwrtop			Z_rwrlow			Z_lshld			Z_lelbext			Z_lelblow			Z_lelbtop			Z_lwrext			Z_lwrtop			Z_lwrlow			Z_rtopleg			Z_ltopleg			Z_rkneefr			Z_rkneebk			Z_rkneeis			Z_lkneefr			Z_lknssbk			Z_lkneeis			Z_rankfr			Z_rankis			Z_rankbk			Z_lankfr			Z_lankbk			Z_lankis			A_lasi			A_rasi			A_rpsi			A_lpsi			A_fneck			A_bneck			A_fhead			A_rhead			A_lhead			A_rshld			A_relbtop			A_relbext			A_relblow			A_rwrext			A_rwrtop			A_rwrlow			A_lshld			A_lelbext			A_lelblow			A_lelbtop			A_lwrext			A_lwrtop			A_lwrlow			A_rtopleg			A_ltopleg			A_rkneefr			A_rkneebk			A_rkneeis			A_lkneefr			A_lknssbk			A_lkneeis			A_rankfr			A_rankis			A_rankbk			A_lankfr			A_lankbk			A_lankis			
		X1	Y1	Z1	X2	Y2	Z2	X3	Y3	Z3	X4	Y4	Z4	X5	Y5	Z5	X6	Y6	Z6	X7	Y7	Z7	X8	Y8	Z8	X9	Y9	Z9	X10	Y10	Z10	X11	Y11	Z11	X12	Y12	Z12	X13	Y13	Z13	X14	Y14	Z14	X15	Y15	Z15	X16	Y16	Z16	X17	Y17	Z17	X18	Y18	Z18	X19	Y19	Z19	X20	Y20	Z20	X21	Y21	Z21	X22	Y22	Z22	X23	Y23	Z23	X24	Y24	Z24	X25	Y25	Z25	X26	Y26	Z26	X27	Y27	Z27	X28	Y28	Z28	X29	Y29	Z29	X30	Y30	Z30	X31	Y31	Z31	X32	Y32	Z32	X33	Y33	Z33	X34	Y34	Z34	X35	Y35	Z35	X36	Y36	Z36	X37	Y37	Z37	X38	Y38	Z38	X39	Y39	Z39	X40	Y40	Z40	X41	Y41	Z41	X42	Y42	Z42	X43	Y43	Z43	X44	Y44	Z44	X45	Y45	Z45	X46	Y46	Z46	X47	Y47	Z47	X48	Y48	Z48	X49	Y49	Z49	X50	Y50	Z50	X51	Y51	Z51	X52	Y52	Z52	X53	Y53	Z53	X54	Y54	Z54	X55	Y55	Z55	X56	Y56	Z56	X57	Y57	Z57	X58	Y58	Z58	X59	Y59	Z59	X60	Y60	Z60	X61	Y61	Z61	X62	Y62	Z62	X63	Y63	Z63	X64	Y64	Z64	X65	Y65	Z65	X66	Y66	Z66	X67	Y67	Z67	X68	Y68	Z68	X69	Y69	Z69	X70	Y70	Z70	X71	Y71	Z71	X72	Y72	Z72	X73	Y73	Z73	X74	Y74	Z74	

38	6.450	-282.73739	1078.48244	693.66409	-323.54332	1090.03517	491.19347	-154.67384	1116.63986	416.73088	-94.64445	1097.91466	653.97636	-276.09707	1452.32513	588.98495	-156.47417	1505.90988	589.63078	-314.92685	1681.03561	558.02299	-158.74933	1642.03903	508.08533	-178.78492	1643.54919	654.81499	-224.53747	1443.97324	382.21680	-179.23380	1126.27998	291.55188	-166.00939	1105.70595	347.94193	-251.20646	1138.07518	315.88188	-289.95573	905.12512	268.89633	-327.65549	920.76447	289.83702	-312.70512	913.51563	330.49622	-162.61780	1437.42477	771.47781	-118.97196	1123.00758	766.12305	-176.06129	1143.72551	832.46864	-107.31128	1141.95335	834.38644	-247.13135	888.83759	822.35275	-232.99009	881.23276	866.84975	-187.93312	876.59111	855.73723	-202.49329	928.79494	365.18471	-195.05667	892.08862	729.70894	-257.88820	422.44034	405.42934	-187.16757	454.76322	358.34972	-195.89514	431.81503	480.92991	-221.56454	445.37800	676.33041	-115.43700	474.25045	667.28958	-208.22950	443.55183	584.59217	-207.90615	182.14514	377.89513	-185.71707	176.51073	440.56210	-131.40966	177.43980	371.95908	-154.70503	163.23854	670.31769	-96.58486	167.26152	615.77831	-174.29485	173.96334	600.17155	-1004.28185	1035.05493	467.84557	-988.47626	1041.04889	626.94016	-1146.20773	1037.20512	652.11731	-1127.40051	1042.17346	469.18083	-1063.66837	1381.69907	562.01584	-1203.11890	1406.17325	552.27909	-1014.91051	1596.18011	576.70918	-1160.05165	1551.44379	657.95364	-1158.68950	1558.78021	495.00275	-1138.06160	1349.46106	741.18217	-1112.17133	1057.11617	772.45850	-1173.05817	1049.01260	750.94582	-1110.33798	1046.30547	714.80492	-1082.46857	810.84160	798.27820	-1040.94604	822.54837	783.54790	-1045.85594	823.32535	747.26204	-1110.18929	1351.62476	383.51284	-1134.01596	1040.08965	367.50530	-1065.17647	1050.91080	386.55476	-1092.97134	1047.88620	340.22026	-1034.55238	825.37926	377.64812	-1039.41780	824.88586	336.58558	-995.80612	836.69868	344.59435	-1085.83099	875.48294	730.37720	-1063.31245	893.34625	391.49567	-1035.76958	454.10091	634.81579	-1140.37773	483.59062	684.83948	-1126.87485	484.57115	565.87536	-1023.99704	467.41749	509.21337	-1107.35542	478.33157	412.80090	-1131.22917	477.79819	536.91486	-1099.48547	164.23414	658.20992	-1136.02463	161.15664	594.22661	-1179.84116	151.10386	665.47653	-1070.33363	165.83107	458.23631	-1130.72586	166.38279	421.97449	-1130.27008	171.89301	510.91194 
39	6.467	-282.44440	1078.45924	693.55858	-323.29830	1089.96887	491.13277	-154.49283	1116.67885	416.66939	-94.41064	1097.98645	653.94302	-276.21664	1452.28363	589.31782	-156.52331	1506.00906	589.62597	-315.62878	1680.66589	559.22497	-159.97969	1642.53494	507.71988	-178.69898	1643.73749	654.65317	-224.54279	1444.05075	382.28127	-179.00553	1126.47476	291.21027	-165.82319	1105.83786	347.61002	-251.00618	1138.25050	315.63385	-289.98621	905.39795	268.60632	-327.63279	921.07948	289.53785	-312.89114	913.83530	330.16594	-162.64465	1437.36603	771.49071	-118.66793	1123.00858	765.89943	-175.49175	1143.54965	832.21115	-106.90009	1141.90880	834.07570	-246.21126	888.54691	821.99280	-231.91246	880.96237	866.54572	-186.62167	876.49216	855.13779	-202.28216	928.80600	365.16762	-194.91127	892.10785	729.65416	-257.54456	422.43660	405.39696	-186.81339	454.75517	358.30257	-195.85054	431.85642	481.08772	-221.45309	445.39848	676.31996	-115.29440	474.24416	667.27425	-208.06019	443.54813	584.56902	-207.78212	182.16253	377.91294	-185.60505	176.52554	440.53043	-131.29568	177.37501	371.95328	-154.67054	163.24675	670.31044	-96.52418	167.23591	615.77930	-174.27731	173.96137	600.20622	-1004.03854	1035.13916	467.87048	-988.33656	1041.04637	627.01008	-1145.99266	1037.01797	651.97815	-1127.16331	1042.15843	469.11758	-1063.90625	1381.59882	562.31762	-1203.22769	1406.32187	552.52144	-1014.41460	1595.87082	576.52050	-1159.83192	1551.86707	657.72430	-1158.25882	1558.60275	494.74312	-1138.45215	1349.23187	741.42044	-1112.28256	1056.94016	772.66472	-1173.12119	1048.80272	751.02882	-1111.73241	1045.93277	713.69339	-1082.17651	810.68329	798.28667	-1040.54184	822.48856	783.44978	-1045.58792	823.17734	747.17186	-1110.24490	1351.65146	383.77934	-1133.64670	1040.09727	367.51595	-1064.83719	1050.99243	386.75682	-1092.56332	1047.98889	340.34180	-1034.16580	825.41237	377.62638	-1038.79349	825.05051	336.56799	-995.23598	836.83632	344.82372	-1085.67947	875.46043	730.32043	-1063.29811	893.50937	391.39565	-1035.70457	454.07761	634.80858	-1140.30838	483.61565	684.81064	-1126.75705	484.56402	565.83874	-1023.94669	467.39693	509.25900	-1107.16759	478.33187	412.78088	-1131.07178	477.83573	536.86256	-1099.45885	164.24980	658.18611	-1136.00304	161.16215	594.20898	-1179.80606	151.13902	665.45731	-1070.26108	165.83263	458.22334	-1130.67177	166.40871	421.96030	-1130.22926	171.91069	510.90240 
40	6.483	-282.26772	1078.34976	693.53668	-323.02017	1089.93835	491.11530	-154.28622	1116.73004	416.67393	-94.21754	1098.02612	653.92593	-276.33978	1452.27005	589.51035	-156.59686	1506.05331	589.62402	-316.76502	1680.14832	560.33134	-161.19005	1643.09494	507.31365	-178.37900	1643.95981	654.19182	-224.53382	1444.08783	382.33189	-178.86442	1126.61301	290.99829	-165.68075	1105.94109	347.32906	-250.85154	1138.37830	315.43118	-290.05396	905.60493	268.30824	-327.59636	921.38000	289.38580	-313.08708	914.14833	330.03582	-162.70897	1437.30118	771.54236	-118.39414	1122.98470	765.61012	-175.04112	1143.36563	832.07703	-106.46369	1141.86646	833.73001	-245.17487	888.14682	821.71638	-230.89584	880.60448	866.16592	-185.76252	876.25618	854.89830	-202.03047	928.81050	365.15404	-194.73410	892.11777	729.59160	-257.34406	422.46292	405.34683	-186.60950	454.72301	358.31253	-195.76935	431.87199	481.12160	-221.35916	445.41046	676.31470	-115.17761	474.23950	667.27745	-207.96967	443.54038	584.55402	-207.70964	182.15137	377.88559	-185.53371	176.51340	440.53749	-131.24584	177.33391	371.94763	-154.67170	163.24987	670.34203	-96.49959	167.23230	615.81257	-174.22338	173.96893	600.18227	-1003.80875	1035.21675	467.90131	-988.17673	1041.06995	627.07760	-1145.88257	1036.90559	651.91612	-1126.98776	1042.12486	469.06258	-1064.17793	1381.50421	562.64282	-1203.30856	1406.48651	552.80319	-1013.88847	1595.50064	576.09951	-1159.52148	1552.38037	657.48108	-1157.72530	1558.33633	494.36932	-1138.85712	1349.00024	741.68060	-1112.42500	1056.74683	772.78908	-1173.26675	1048.58177	751.18835	-1111.99539	1045.78705	713.51227	-1081.92200	810.51704	798.35815	-1040.36781	822.37862	783.50914	-1045.45357	823.00018	747.19193	-1110.36354	1351.68060	384.07669	-1133.31970	1040.13756	367.55756	-1064.53926	1051.08582	386.98002	-1092.22237	1048.06984	340.50587	-1033.83690	825.45357	377.62272	-1038.14056	825.19669	336.59451	-994.65584	836.99867	345.02113	-1085.49911	875.58372	730.23918	-1063.04329	893.53554	391.35674	-1035.66177	454.04488	634.79954	-1140.26016	483.65562	684.77661	-1126.67961	484.59923	565.81020	-1023.73108	467.37972	509.24541	-1106.98395	478.34274	412.76466	-1130.90263	477.86015	536.86356	-1099.43802	164.27271	658.17917	-1135.94460	161.16369	594.18900	-1179.80347	151.16689	665.45921	-1070.22545	165.82029	458.23509	-1130.60883	166.41233	421.97239	-1130.17708	171.92812	510.92705 
41	6.500	-282.02755	1078.32443	693.44559	-322.69989	1089.93019	491.03149	-153.92088	1116.76376	416.62689	-94.01983	1098.05740	653.94066	-276.42220	1452.31049	589.68201	-156.67261	1506.05713	589.57420	-317.66016	1679.63593	561.31992	-162.56367	1643.64899	506.80492	-178.44130	1644.17801	653.83316	-224.46598	1444.09866	382.33631	-178.76347	1126.67480	290.88472	-165.57919	1106.01570	347.15897	-250.74436	1138.46558	315.28635	-290.13800	905.76378	268.07407	-327.68147	921.57661	288.98651	-313.18375	914.34486	329.85600	-162.78769	1437.21420	771.56776	-118.13399	1122.98393	765.30685	-174.79267	1143.27026	831.96983	-106.14492	1141.80481	833.47374	-244.49440	887.82272	821.61766	-230.12712	880.31448	865.99129	-184.91858	876.01410	854.54338	-201.72678	928.81828	365.09678	-194.53413	892.16537	729.52560	-257.24064	422.48043	405.33688	-186.46147	454.71565	358.27927	-195.82111	431.90170	481.20480	-221.37640	445.47497	676.41731	-115.12529	474.24301	667.28294	-207.90718	443.53596	584.56127	-207.66249	182.15515	377.88910	-185.51012	176.52420	440.52570	-131.18971	177.31691	371.93596	-154.62796	163.24137	670.33371	-96.44440	167.23310	615.74764	-174.21228	173.95414	600.19745	-1003.54683	1035.33760	467.91920	-988.06259	1041.12465	627.11983	-1145.71548	1036.71921	651.80962	-1126.82365	1042.08237	468.99239	-1064.42749	1381.37192	563.03417	-1203.44765	1406.70364	553.17287	-1013.18443	1595.06073	575.40619	-1159.13055	1553.02917	657.09511	-1157.19788	1558.04214	493.97053	-1139.24782	1348.75122	741.87523	-1112.59377	1056.53633	772.95021	-1173.42743	1048.24623	751.34148	-1111.87584	1045.69649	713.81943	-1081.70219	810.36194	798.35350	-1040.16907	822.27478	783.51479	-1045.32425	822.83173	747.14706	-1110.51720	1351.72531	384.35253	-1132.98561	1040.19211	367.68028	-1064.23897	1051.21429	387.13253	-1091.90109	1048.15826	340.67513	-1033.46359	825.52795	377.55676	-1037.50664	825.39474	336.57856	-994.00085	837.17819	345.32593	-1085.37125	875.58472	730.15472	-1062.65442	893.46687	391.37959	-1035.55824	454.01821	634.76395	-1140.20294	483.69652	684.75082	-1126.55029	484.61987	565.77858	-1023.81218	467.32586	509.38393	-1106.79726	478.36826	412.77775	-1130.74265	477.88860	536.87069	-1099.44176	164.29176	658.22945	-1135.92224	161.18839	594.21932	-1179.70451	151.19311	665.39818	-1070.15511	165.81722	458.21987	-1130.54619	166.43631	421.96907	-1130.14130	171.93413	510.91778 
